<svg width="512" height="512" viewBox="0 0 512 512" fill="none" xmlns="http://www.w3.org/2000/svg">
<g clip-path="url(#clip0_3_9)">
<path d="M405.914 346.052C374.135 292.3 295.378 238.548 252.546 232.963C250.214 232.607 247.83 232.859 245.621 233.697C243.413 234.535 241.454 235.93 239.93 237.749C238.406 239.569 237.369 241.752 236.917 244.092C236.465 246.431 236.613 248.848 237.347 251.113C238.253 253.595 239.838 255.765 241.917 257.372C243.996 258.978 246.484 259.955 249.092 260.189C268.435 263.679 301.596 281.131 331.302 304.866C306.432 328.6 269.126 339.072 238.729 329.997C185.534 314.639 158.591 245.529 139.247 188.286L191.751 180.607C237.347 172.23 276.725 165.25 302.978 183.4C329.23 201.55 330.611 218.304 334.756 241.34L352.718 253.906C353.792 254.731 355.08 255.22 356.425 255.314C357.77 255.408 359.113 255.102 360.288 254.434C361.463 253.766 362.419 252.765 363.038 251.555C363.657 250.345 363.912 248.978 363.772 247.623C359.627 214.813 349.264 182.004 318.867 161.061C288.47 140.119 236.656 144.307 186.915 152.684C164.781 157.078 142.402 160.109 119.903 161.759H110.922C109.811 161.638 108.687 161.822 107.67 162.292C106.654 162.762 105.781 163.501 105.144 164.43C104.508 165.359 104.131 166.444 104.054 167.571C103.976 168.698 104.201 169.825 104.705 170.834L107.468 179.211C128.884 244.831 158.591 334.883 230.439 356.524C240.576 359.286 251.028 360.694 261.527 360.712C295.45 360.422 328.016 347.209 352.718 323.714C364.008 334.839 373.978 347.256 382.425 360.712C383.563 362.85 385.26 364.632 387.33 365.863C389.401 367.094 391.767 367.727 394.169 367.693C397.38 367.744 400.524 366.767 403.15 364.901C405.758 362.607 407.469 359.448 407.976 355.992C408.482 352.536 407.751 349.012 405.914 346.052Z" fill="#64B5FF"/>
</g>
<circle cx="256" cy="256" r="243.5" stroke="#64B5FF" stroke-width="25"/>
<defs>
<clipPath id="clip0_3_9">
<rect width="331.606" height="335.079" fill="white" transform="translate(90.1969 88.4608)"/>
</clipPath>
</defs>
</svg>
