<?xml version="1.0" standalone="no"?>
<!DOCTYPE svg PUBLIC "-//W3C//DTD SVG 20010904//EN"
 "http://www.w3.org/TR/2001/REC-SVG-20010904/DTD/svg10.dtd">
<svg version="1.0" xmlns="http://www.w3.org/2000/svg"
 width="700.000000pt" height="700.000000pt" viewBox="0 0 700.000000 700.000000"
 preserveAspectRatio="xMidYMid meet">
<metadata>
Created by potrace 1.14, written by Peter Selinger 2001-2017
</metadata>
<g transform="translate(0.000000,700.000000) scale(0.100000,-0.100000)"
fill="#000000" stroke="none">
<path d="M3278 6995 c-1 -1 -41 -5 -88 -9 -47 -4 -101 -9 -120 -12 -139 -19
-252 -40 -360 -66 -69 -16 -135 -31 -147 -34 -40 -8 -264 -84 -367 -126 -245
-97 -594 -291 -766 -425 -8 -6 -51 -40 -95 -74 -472 -368 -860 -885 -1085
-1450 -66 -165 -142 -408 -165 -530 -3 -13 -12 -58 -20 -99 -8 -41 -17 -89
-19 -105 -3 -17 -7 -46 -11 -66 -21 -123 -30 -282 -30 -504 0 -194 7 -329 20
-406 2 -13 6 -46 9 -74 37 -321 160 -722 326 -1060 59 -119 170 -316 197 -350
4 -6 29 -42 54 -80 220 -335 582 -693 939 -929 177 -117 208 -135 360 -213
347 -177 728 -298 1099 -349 25 -3 57 -8 71 -10 163 -25 682 -25 842 1 13 2
46 7 73 10 71 10 87 13 115 18 14 3 43 8 65 12 115 21 314 74 455 122 557 189
1090 542 1480 982 36 41 70 79 75 85 62 67 240 317 320 450 179 298 346 717
411 1031 16 75 54 300 60 350 4 33 9 76 11 95 8 71 10 517 3 595 -17 172 -22
220 -25 225 -2 3 -6 30 -10 60 -3 30 -10 71 -15 90 -5 19 -12 51 -15 70 -13
75 -67 275 -106 392 -349 1040 -1171 1861 -2209 2207 -173 58 -393 112 -550
136 -25 4 -54 9 -65 11 -10 2 -49 6 -85 10 -36 3 -78 8 -95 11 -33 5 -531 13
-537 8z m502 -348 c94 -10 166 -19 180 -22 8 -2 35 -7 60 -10 25 -4 88 -16
140 -27 52 -11 100 -21 105 -22 10 -3 39 -11 185 -54 207 -60 547 -219 745
-347 81 -52 273 -189 285 -204 3 -3 34 -30 70 -60 80 -67 275 -262 357 -356
270 -313 501 -741 622 -1151 31 -103 67 -256 77 -322 3 -20 7 -42 9 -49 2 -6
7 -38 10 -70 4 -32 8 -69 11 -83 24 -136 24 -621 0 -745 -2 -11 -7 -42 -10
-70 -15 -105 -18 -121 -28 -165 -5 -25 -12 -56 -14 -69 -65 -334 -243 -753
-459 -1076 -207 -309 -497 -606 -800 -821 -277 -197 -597 -353 -925 -451 -63
-19 -126 -37 -140 -39 -14 -3 -41 -9 -60 -14 -19 -5 -48 -11 -65 -14 -16 -3
-55 -10 -85 -16 -188 -34 -331 -45 -560 -44 -186 0 -331 10 -449 29 -20 3 -52
8 -71 11 -133 18 -382 85 -572 156 -651 239 -1220 708 -1591 1309 -110 179
-234 441 -295 624 -24 73 -79 260 -86 295 -3 14 -7 36 -10 50 -15 69 -28 136
-31 154 -2 12 -6 44 -10 71 -4 28 -9 61 -11 75 -25 169 -24 631 1 770 3 14 7
42 9 62 5 35 19 119 31 178 3 14 7 34 9 45 12 58 58 229 86 315 17 52 72 196
101 264 229 530 603 988 1089 1333 362 258 818 447 1261 522 113 20 158 25
309 40 77 7 440 6 520 -2z"/>
<path d="M3327 5004 c-1 -1 -48 -4 -103 -8 -56 -3 -119 -8 -140 -11 -22 -2
-82 -9 -134 -15 -52 -7 -106 -13 -120 -15 -84 -13 -160 -25 -195 -29 -22 -4
-64 -11 -94 -17 -30 -6 -64 -12 -75 -14 -12 -1 -48 -7 -81 -13 -33 -6 -76 -14
-95 -17 -19 -3 -46 -7 -60 -10 -31 -5 -81 -12 -145 -20 -27 -3 -61 -8 -75 -10
-14 -3 -50 -7 -80 -10 -30 -3 -73 -8 -95 -11 -22 -2 -107 -7 -190 -10 -82 -4
-161 -11 -175 -18 -14 -6 -31 -24 -39 -41 -13 -28 -9 -44 83 -320 182 -549
320 -894 463 -1165 293 -555 628 -904 1028 -1070 147 -60 151 -62 350 -95 77
-13 339 -14 441 -2 330 40 687 200 948 422 l79 68 62 -64 c114 -118 226 -261
327 -415 26 -40 62 -81 81 -93 52 -32 123 -35 184 -6 43 20 55 31 78 79 24 49
27 64 21 113 -6 47 -18 72 -81 167 -115 171 -228 307 -395 475 -440 442 -1067
841 -1504 956 -163 43 -236 39 -296 -19 -43 -40 -60 -78 -61 -134 -3 -93 63
-173 154 -187 240 -36 732 -296 1089 -576 l47 -36 -32 -30 c-79 -74 -164 -131
-292 -199 -103 -54 -286 -121 -357 -129 -23 -3 -44 -8 -48 -10 -26 -16 -257
-24 -362 -12 -313 35 -620 228 -859 542 -171 223 -347 551 -475 883 -15 37
-35 90 -46 117 -70 180 -153 423 -147 429 2 2 22 6 44 9 22 3 86 13 141 21 56
9 123 18 150 21 27 3 56 8 65 11 9 2 36 7 60 9 61 6 265 38 444 70 83 14 161
28 175 30 35 5 110 16 140 20 38 6 98 13 170 21 86 10 369 10 445 1 77 -10
198 -42 252 -67 24 -11 45 -20 48 -20 30 0 225 -150 294 -226 96 -106 170
-256 195 -399 17 -94 45 -227 48 -229 1 -2 32 -23 67 -47 222 -153 226 -155
282 -122 46 27 51 75 24 213 -3 14 -8 41 -11 60 -10 61 -63 267 -80 312 -9 24
-19 52 -23 63 -29 76 -132 264 -185 335 -106 142 -282 295 -406 352 -107 50
-218 87 -303 102 -15 3 -53 10 -85 15 -89 16 -193 23 -370 25 -89 1 -163 1
-165 0z"/>
</g>
</svg>
